<svg width="20" height="20" viewBox="0 0 20 20" fill="none" xmlns="http://www.w3.org/2000/svg">
<path fill-rule="evenodd" clip-rule="evenodd" d="M3.33335 0C2.41288 0 1.66669 0.746192 1.66669 1.66667V18.3333C1.66669 19.2538 2.41288 20 3.33335 20H16.6667C17.5872 20 18.3334 19.2538 18.3334 18.3333V0H3.33335ZM18.3333 1.3113e-05V3.33333L15 1.28216e-05L18.3333 1.3113e-05Z" fill="#E2E8F0"/>
<path fill-rule="evenodd" clip-rule="evenodd" d="M15 0V3.33332H18.3333L15 0Z" fill="#94A3B8"/>
<path fill-rule="evenodd" clip-rule="evenodd" d="M18.3334 6.66663V3.33329H15L18.3334 6.66663Z" fill="#CBD5E1"/>
<rect x="1" y="7" width="18" height="9" rx="1" fill="#F43F5E"/>
<path d="M4.98397 8.72C5.36264 8.72 5.68797 8.78667 5.95997 8.92C6.2373 9.05333 6.4533 9.24267 6.60797 9.488C6.76264 9.73333 6.83997 10.0293 6.83997 10.376C6.83997 10.7173 6.76264 11.0133 6.60797 11.264C6.4533 11.5093 6.2373 11.6987 5.95997 11.832C5.68797 11.9653 5.36264 12.032 4.98397 12.032H3.80797V14H2.95197V8.72H4.98397ZM4.84797 11.296C5.22664 11.296 5.50397 11.2187 5.67997 11.064C5.8613 10.904 5.95197 10.6747 5.95197 10.376C5.95197 10.072 5.8613 9.84267 5.67997 9.688C5.50397 9.528 5.22664 9.448 4.84797 9.448H3.80797V11.296H4.84797ZM9.83159 8.72C10.6583 8.72 11.3009 8.94933 11.7596 9.408C12.2236 9.86133 12.4556 10.512 12.4556 11.36C12.4556 12.208 12.2236 12.8613 11.7596 13.32C11.3009 13.7733 10.6583 14 9.83159 14H7.96759V8.72H9.83159ZM9.83159 13.272C10.3916 13.272 10.8183 13.1067 11.1116 12.776C11.4103 12.44 11.5596 11.968 11.5596 11.36C11.5596 10.752 11.4103 10.2827 11.1116 9.952C10.8183 9.616 10.3916 9.448 9.83159 9.448H8.82359V13.272H9.83159ZM17.5414 9.456H14.5814V10.992H16.9014V11.728H14.5814V14H13.7254V8.72H17.5414V9.456Z" fill="white"/>
</svg>
